<?xml version="1.0" encoding="UTF-8"?>
<svg xmlns="http://www.w3.org/2000/svg" xmlns:xlink="http://www.w3.org/1999/xlink" width="24px" height="24px" viewBox="0 0 24 24" version="1.1">
<g id="surface1">
<path style=" stroke:none;fill-rule:nonzero;fill:rgb(0%,0%,0%);fill-opacity:1;" d="M 7 18.5 C 7 16.84375 5.65625 15.5 4 15.5 C 2.34375 15.5 1 16.84375 1 18.5 C 1 20.15625 2.34375 21.5 4 21.5 C 5.65625 21.5 7 20.15625 7 18.5 Z M 7 18.5 "/>
<path style=" stroke:none;fill-rule:nonzero;fill:rgb(0%,0%,0%);fill-opacity:1;" d="M 12 15.5 C 10.34375 15.5 9 16.84375 9 18.5 C 9 20.15625 10.34375 21.5 12 21.5 C 13.65625 21.5 15 20.15625 15 18.5 C 15 16.84375 13.65625 15.5 12 15.5 Z M 12 19.5 C 11.449219 19.5 11 19.050781 11 18.5 C 11 17.949219 11.449219 17.5 12 17.5 C 12.550781 17.5 13 17.949219 13 18.5 C 13 19.050781 12.550781 19.5 12 19.5 Z M 12 19.5 "/>
<path style=" stroke:none;fill-rule:nonzero;fill:rgb(0%,0%,0%);fill-opacity:1;" d="M 23 18.5 C 23 16.84375 21.65625 15.5 20 15.5 C 18.34375 15.5 17 16.84375 17 18.5 C 17 20.15625 18.34375 21.5 20 21.5 C 21.65625 21.5 23 20.15625 23 18.5 Z M 23 18.5 "/>
<path style=" stroke:none;fill-rule:nonzero;fill:rgb(0%,0%,0%);fill-opacity:1;" d="M 18.699219 9.800781 C 18.503906 9.578125 18.21875 9.460938 17.925781 9.480469 C 17.632812 9.5 17.363281 9.65625 17.199219 9.898438 C 16.898438 10.3125 16.941406 10.882812 17.300781 11.25 L 19.300781 13.199219 C 19.480469 13.394531 19.734375 13.507812 20 13.507812 C 20.265625 13.507812 20.519531 13.394531 20.699219 13.199219 L 22.699219 11.25 C 23.039062 10.878906 23.097656 10.335938 22.851562 9.898438 C 22.675781 9.652344 22.398438 9.5 22.097656 9.480469 C 21.796875 9.460938 21.503906 9.578125 21.300781 9.800781 L 21 10.101562 C 20.890625 5.128906 16.769531 1.191406 11.800781 1.300781 C 6.828125 1.410156 2.890625 5.53125 3 10.5 L 3 11.5 C 3 12.050781 3.449219 12.5 4 12.5 C 4.550781 12.5 5 12.050781 5 11.5 L 5 10.5 C 4.875 6.632812 7.910156 3.398438 11.773438 3.273438 C 15.640625 3.152344 18.875 6.183594 19 10.050781 Z M 18.699219 9.800781 "/>
</g>
</svg>
